<?xml version="1.0" encoding="UTF-8"?>
<svg id="katman_1" xmlns="http://www.w3.org/2000/svg" version="1.1" xmlns:xlink="http://www.w3.org/1999/xlink" viewBox="0 0 593 427.6">
  <!-- Generator: Adobe Illustrator 29.3.1, SVG Export Plug-In . SVG Version: 2.1.0 Build 151)  -->
  <defs>
    <style>
      .st0 {
        clip-path: url(#clippath-6);
      }

      .st1 {
        clip-path: url(#clippath-7);
      }

      .st2 {
        fill: url(#Adsız_degrade_6);
      }

      .st3 {
        clip-path: url(#clippath-4);
      }

      .st4 {
        fill: url(#Adsız_degrade_3);
      }

      .st5 {
        clip-path: url(#clippath-9);
      }

      .st6 {
        clip-path: url(#clippath-10);
      }

      .st7 {
        fill: #fff;
      }

      .st8 {
        fill: url(#Adsız_degrade_4);
      }

      .st9 {
        clip-path: url(#clippath-11);
      }

      .st10 {
        fill: none;
      }

      .st11 {
        clip-path: url(#clippath-1);
      }

      .st12 {
        clip-path: url(#clippath-5);
      }

      .st13 {
        fill: url(#Adsız_degrade);
      }

      .st14 {
        clip-path: url(#clippath-8);
      }

      .st15 {
        fill: url(#Adsız_degrade_7);
      }

      .st16 {
        fill: #dd1f2d;
      }

      .st17 {
        clip-path: url(#clippath-3);
      }

      .st18 {
        fill: url(#Adsız_degrade_8);
      }

      .st19 {
        clip-path: url(#clippath-12);
      }

      .st20 {
        clip-path: url(#clippath-14);
      }

      .st21 {
        fill: url(#Adsız_degrade_5);
      }

      .st22 {
        fill: url(#Adsız_degrade_2);
      }

      .st23 {
        clip-path: url(#clippath-2);
      }

      .st24 {
        clip-path: url(#clippath-13);
      }

      .st25 {
        clip-path: url(#clippath);
      }

      .st26 {
        fill: #4960b6;
      }
    </style>
    <clipPath id="clippath">
      <path class="st10" d="M426.8,64c-15.6,4.8-31.7,7.2-48,7.2-14.3,0-27.7-2-39.7-6-14.5-4.7-27.6-12.7-38.4-23.4l-4-4-4,4c-10.8,10.7-24,18.7-38.5,23.4-12.1,4-25.6,6-40,6-16.1,0-32.1-2.4-47.6-6.9l-7.6-2.5v173.4c0,24.3,6.6,47.4,19.5,68.7,10.5,17.2,25.2,33.1,43.6,47.4,32.1,24.8,66,37,74.1,38.5l1,.2,1-.2c6.9-1.2,41.4-13.5,73.6-38.6,18.3-14.3,32.8-30.2,43.2-47.4,12.7-20.6,19.4-44.4,19.3-68.6V61.4l-7.6,2.6Z"/>
    </clipPath>
    <linearGradient id="Adsız_degrade" data-name="Adsız degrade" x1="-123" y1="512" x2="-122" y2="512" gradientTransform="translate(34026.6 -140553.3) scale(275.4 274.9)" gradientUnits="userSpaceOnUse">
      <stop offset="0" stop-color="#fcd190"/>
      <stop offset=".1" stop-color="#b7a785"/>
      <stop offset=".2" stop-color="#fde1b1"/>
      <stop offset=".5" stop-color="#b68a67"/>
      <stop offset=".6" stop-color="#fde1b1"/>
      <stop offset="1" stop-color="#b68a67"/>
    </linearGradient>
    <clipPath id="clippath-1">
      <rect class="st10" x="311" y="122.8" width="47" height="63"/>
    </clipPath>
    <clipPath id="clippath-2">
      <path class="st10" d="M313.4,125.3v48.6c0,4.3,3.2,5.1,5.2,5.2,10.6.6,24.3,1.6,37.4,4v-30.5c0-6.9-6.4-7.3-6.6-7.3l-11.5-.4-1.9,5.3c2.3.2,5.2.3,5.5.3h.8v24.7l-1-.2c-2.9-.6-13.2-1-13.3-1h-.8v-43.3h15.1v4.2c0,.7.9,1.3,1.8,1.4l11.9.6v-6.7c0-2.9-2.9-4.9-6.9-4.9h-35.6ZM357.7,185.1l-1-.2c-13.3-2.5-27.4-3.5-38.2-4.1-4.3-.2-6.8-2.8-6.8-6.9v-50.3h37.3c5.6,0,8.5,3.3,8.6,6.6v8.4l-13.6-.7c-1.9,0-3.4-1.4-3.4-3v-2.6h-11.8v39.9c2.3.1,8.6.4,11.8.9v-21c-1.5,0-4.8-.3-5.9-.4h-1.1c0,0,3.1-8.6,3.1-8.6l12.8.5c0,0,8.3.4,8.3,8.9v32.5h0Z"/>
    </clipPath>
    <linearGradient id="Adsız_degrade_2" data-name="Adsız degrade 2" x1="-122.3" y1="515.8" x2="-121.3" y2="515.8" gradientTransform="translate(-18391.8 -30106.4) rotate(-44.9) scale(67.2) skewX(0)" gradientUnits="userSpaceOnUse">
      <stop offset="0" stop-color="#fcd190"/>
      <stop offset="0" stop-color="#fcd190"/>
      <stop offset=".5" stop-color="#b7a785"/>
      <stop offset="1" stop-color="#fcd190"/>
    </linearGradient>
    <clipPath id="clippath-3">
      <rect class="st10" x="259" y="122.8" width="47" height="60"/>
    </clipPath>
    <clipPath id="clippath-4">
      <path class="st10" d="M261.2,125.3v54.9c3.2-.3,6.4-.5,9.6-.7,1.4,0,2.8-.2,4.2-.2v-38.7l15.2,21.8v16.2c2.7,0,5.5,0,8.1,0s3.6,0,5.7,0v-53.2h-13.7v20.8s-14.8-20.8-14.8-20.8h-14.1ZM259.5,182.1v-58.5h16.7l12.3,17.3v-17.3h17v56.6h-.9c-2.5,0-4.5,0-6.5,0-2.9,0-5.9,0-8.9.1h-.9v-17.4s-11.8-17-11.8-17v35h-.8c-1.7.2-3.3.3-5,.4-3.4.2-7,.4-10.4.8h-.9Z"/>
    </clipPath>
    <linearGradient id="Adsız_degrade_3" data-name="Adsız degrade 3" x1="-122.5" y1="515.4" x2="-121.5" y2="515.4" gradientTransform="translate(-20269.7 -33087.9) rotate(-44.9) scale(73.8) skewX(0)" gradientUnits="userSpaceOnUse">
      <stop offset="0" stop-color="#fcd190"/>
      <stop offset="0" stop-color="#fcd190"/>
      <stop offset=".5" stop-color="#b7a785"/>
      <stop offset="1" stop-color="#fcd190"/>
    </linearGradient>
    <clipPath id="clippath-5">
      <rect class="st10" x="363" y="122.8" width="46" height="77"/>
    </clipPath>
    <clipPath id="clippath-6">
      <path class="st10" d="M365,184.9c14.2,2.9,28.2,7.1,41.7,12.4v-39.9c.2-4.1-2.7-7.8-6.8-8.6v-.8c.1,0,0,.8,0,.8,0,0-6.5-1.1-20.3-2.1h-.8v-16h14.1v6.3c0,2,2.1,2.2,2.2,2.2l11.6,1.5v-9.6c0-1.7-.6-3.3-1.9-4.3-1.3-1-2.9-1.6-4.6-1.5h-35.1v20.3c0,5.6,6.1,6.4,6.4,6.4s16.6,1.9,20.8,2.4h.7v29l-1.1-.3c-3.9-1.1-12.4-2.8-12.4-2.8h-.7v-12.3c-.1-.9-.8-1.7-1.8-1.9-3-.5-9.5-1.5-12-1.9,0,3.5,0,15.3,0,20.6ZM408.4,199.8l-1.2-.5c-14-5.6-28.4-9.9-43.2-12.9h-.7v-24.1h1c0,.1,9.2,1.5,13,2.2,1.7.3,2.9,1.8,3.1,3.5v10.8c1.9.4,7.3,1.5,10.8,2.4v-25.3c-5.1-.7-19.9-2.3-20.1-2.3-2.7-.3-7.8-2.4-7.8-8.1v-22h36.8c2.1,0,4.1.6,5.7,1.9,1.6,1.4,2.6,3.5,2.5,5.6v11.5l-13.4-1.8c-2.1-.1-3.7-1.8-3.7-3.9v-4.6h-10.8v12.7c6.8.5,11.7,1.1,14.7,1.4,2.6.3,4,.5,4.8.7h.1c4.9.8,8.5,5.2,8.3,10.2v42.3Z"/>
    </clipPath>
    <linearGradient id="Adsız_degrade_4" data-name="Adsız degrade 4" x1="-122.4" y1="515.5" x2="-121.4" y2="515.5" gradientTransform="translate(-19939.8 -32709.8) rotate(-45) scale(73) skewX(0)" gradientUnits="userSpaceOnUse">
      <stop offset="0" stop-color="#fcd190"/>
      <stop offset="0" stop-color="#fcd190"/>
      <stop offset=".5" stop-color="#b7a785"/>
      <stop offset="1" stop-color="#fcd190"/>
    </linearGradient>
    <clipPath id="clippath-7">
      <rect class="st10" x="184" y="122.8" width="49" height="78"/>
    </clipPath>
    <clipPath id="clippath-8">
      <path class="st10" d="M186.4,125.3v72c5-2.1,10.1-3.9,15.2-5.5v-37.8l4.2-.7,9.2,34.6c4.2-1.2,12.2-2.7,14.9-3.2l-9.5-31.8-4.8.4,12.2-28.1h-14.2l-12.1,25.6v-25.6h-15.2ZM184.8,199.9v-76.3h18.6v19.8l9.4-19.8h17.8l-12.1,27.9,3.3-.3,10.4,34.9-.9.2c-.1,0-12,2.2-16.5,3.5l-.8.3-9.2-34.8-1.3.2v37.6l-.6.2c-5.7,1.7-11.3,3.7-16.8,6.1l-1.2.5Z"/>
    </clipPath>
    <linearGradient id="Adsız_degrade_5" data-name="Adsız degrade 5" x1="-122.7" y1="514.9" x2="-121.7" y2="514.9" gradientTransform="translate(-23782.8 -38689) rotate(-45) scale(86.3) skewX(0)" gradientUnits="userSpaceOnUse">
      <stop offset="0" stop-color="#fcd190"/>
      <stop offset="0" stop-color="#fcd190"/>
      <stop offset=".5" stop-color="#b7a785"/>
      <stop offset="1" stop-color="#fcd190"/>
    </linearGradient>
    <clipPath id="clippath-9">
      <rect class="st10" x="235" y="122.8" width="19" height="63"/>
    </clipPath>
    <clipPath id="clippath-10">
      <path class="st10" d="M237.3,125.3v58c2.1-.4,7.3-1.4,14.1-2.1v-55.9h-14.1ZM235.7,185.3v-61.7h17.4v59.1h-.8c-5.3.6-10.5,1.3-15.7,2.4l-1,.2Z"/>
    </clipPath>
    <linearGradient id="Adsız_degrade_6" data-name="Adsız degrade 6" x1="-122" y1="516.7" x2="-121" y2="516.7" gradientTransform="translate(-15411.9 -25081.9) rotate(-45) scale(56) skewX(0)" gradientUnits="userSpaceOnUse">
      <stop offset="0" stop-color="#fcd190"/>
      <stop offset="0" stop-color="#fcd190"/>
      <stop offset=".5" stop-color="#b7a785"/>
      <stop offset="1" stop-color="#fcd190"/>
    </linearGradient>
    <clipPath id="clippath-11">
      <rect class="st10" x="232" y="93.8" width="129" height="21"/>
    </clipPath>
    <clipPath id="clippath-12">
      <path class="st10" d="M291.2,107.7l-8.5-13.8h-6.4l1.1,3.3v17.1h5.1v-13l8.1,13h5.5v-20.4h-5.1v13.8h0ZM268.7,111h-7.9v-17.2h-6.2l1.2,3.3v14.5c0,1.4,1.2,2.6,2.6,2.6h15.4v-20.4h-6.2l1.2,3.3v13.9ZM247,97.1h-7.7v6.8h7.7v-6.8ZM249.3,93.8c1.6,0,2.8,1.3,2.8,2.8v8c0,.3,0,.6,0,.8-.1.6-.6,1.2-1.2,1.5-.4.2-.9.3-1.4.3h-10.2v7h-5.1v-17.1l-1.2-3.3h16.3M328.7,97l-2.7,8.3h5.4l-2.7-8.3ZM332.7,93.8l6.5,20.3h-4.9l-1.7-5.3h-7.7l-1.7,5.3h-4.9l5.9-17.2v-3.2s8.6,0,8.6,0ZM355,105.2h-7.7v5.7h7.7v-5.7ZM347.3,101.9h7.6v-4.8h-7.6v4.8ZM357.6,103.7s2.6.7,2.6,2.7v5.6c0,1.3-1,2.3-2.3,2.3h-15.7v-17.1c0,0-1.2-3.3-1.2-3.3h16.7c1.3,0,2.3,1,2.3,2.3v4.8c0,1.9-2.6,2.7-2.6,2.7M310.6,97.1l-1.2-3.3h6.3v20.4h-13.4c-1.5,0-2.6-1.2-2.6-2.7v-4.9h5.1v4.2h5.8v-13.8Z"/>
    </clipPath>
    <linearGradient id="Adsız_degrade_7" data-name="Adsız degrade 7" x1="-121.8" y1="512.5" x2="-120.8" y2="512.5" gradientTransform="translate(15723.1 -64977.2) scale(127.2 127)" gradientUnits="userSpaceOnUse">
      <stop offset="0" stop-color="#fcd190"/>
      <stop offset=".1" stop-color="#b7a785"/>
      <stop offset=".2" stop-color="#fde1b1"/>
      <stop offset=".5" stop-color="#b68a67"/>
      <stop offset=".6" stop-color="#fde1b1"/>
      <stop offset="1" stop-color="#b68a67"/>
    </linearGradient>
    <clipPath id="clippath-13">
      <rect class="st10" x="205" y="191.8" width="179" height="166"/>
    </clipPath>
    <clipPath id="clippath-14">
      <path class="st10" d="M325.5,289.7l-.3,2.3,12-18.1s-9.6-4.5-9.9-12.6c-.3-8.2,7.2-10.7,10.8-10.7-8,4.2-5.1,10.8-5.1,10.8,0,0,1.7-8.3,12.4-4.9-2.4.5-6.5,1.5-7.2,5.8-.4,2.3,1.6,4.7,5.9,4.4,24.4-1.7,30.6,2.7,30.6,2.7,0,0,4.6-14.2-10.3-19.6,5.3-1,10.8,0,15.5,2.6l2.8,1.6-2.2-2.4c-6-6.7-16.9-14.9-34.3-15.6h-.6c0,.1-.2.1-.2.1-4.1,2-9.1,1.4-12.6-1.5-5.2,2.8-12.2-1.3-12.2-1.3,0,0,1.3,3.6,7.3,3.9-4.1,2-9.1,1.4-12.6-1.6-2.8-2.5-4.3-6.2-4-10,6.7,5.1,12.6,2.4,13.7,2.1,8-1.8,10.9,4.7,10.9,4.7,0,0,7.9,3.3,12.5-3.5h0s0,0,0,0l-.9-.8c-.2-.2-5.2-4.4-13.9-7.5-8-2.8-20.9-5.1-36.5,0h0c-1.9.5-11.7,2.8-21.3-1.2l-2.1-.9,1.5,1.7c8,8.7,17.6,7.9,22.5,6.8-3.8,6.1-14.7,8.8-14.7,8.8,3.6,2.5,8.2,3.2,12.4,1.9-7.8,6.4-8.8,14.7-6,20.2,2.3,4.7,7,7.9,12.2,8.3,0,0-3.6-9.6,1.9-18.4-.6,3.7-.8,11,4.5,16.1,9.8,9.6,8.4,20.3,8,22.3l-.3,1.8,1.2-1.4c3.3-3.7,3.9-10.5,3.9-13.4,1.9,2,5.9,7.6,4.6,16.3ZM281.8,233.2s-12.4-9.6-20.7-5.6c-2.6,1.3-5.1,3.4-4.8,8.1.3,5.1,6.4,11.2,17.6,8.4,0,0-10.4.8-12.8-6.3-1.6-4.8,3.3-6.8,3.3-6.8,1.6,4.6,5.8,7.7,10.6,7.8,1.5,0,2.9-.3,4.2-.9-.8-1.8-2.2-3.3-3.8-4.4,1.4-.2,4.3-.6,6.3-.2ZM253.2,250.9l1.2-1.5s-11.9,3.9-22.5,16.9c3.7-10.4,15.1-21.8,15.1-21.8-7.3,2.6-14,6.7-19.7,12,5.7-13.4,28-28.2,28-28.2,0,0-21.3,6.1-34.2,21.4-15.4,18.3-14.9,35.2-14.9,35.2,0,0,4.4-9.3,11.3-15.1-6.4,14.7-3,30.8-1.7,35.7l.6,2.4.4-2.4c1.4-9.1,4.7-21.2,9.2-29.4-1.7,10.5-2,33.9,3.6,44l1.5,2.8-.6-3.2c0-.3-5.9-32.3,22.8-68.7ZM294.8,285.7s-8.9,12.4-10.4,26.5c-3.2-13.1,2.6-32.6,2.6-32.6,0,0-11,10.7-13,24.9-2.5-21.6,7.7-38.6,7.7-38.6,0,0-15.8,12.1-17.1,41.8-.6,14.7,3,29.4,10.2,42.2,0,0-1.5-14.4-.9-22.6,6.2,22.7,21.7,30.4,21.7,30.4,0,0-7.4-9.4-9.4-29.4,2.6,7.7,10.7,18.1,18.8,22.3-20.2-27.8-10.1-64.9-10.1-64.9ZM268.3,268.7c-7.6,5.4-13.7,12.6-17.7,20.9-1-11,7.1-29.5,7.1-29.5-31,37.2-13.8,72.3-13.8,72.3,0,0,.5-13.3,3.3-22.6,1.9,19.7,14.7,33.8,14.7,33.8,0,0-16.4-35.8,6.5-74.9ZM381.6,259.2c-.2.2-4.7,5.4-6.1,9.6l-.2.6h.6c0,0,.1,0,.1,0,.6,0,3.5-.3,5-5l2-7.1-1.5,1.8ZM312,213.5s15-.6,24.2,5.2c0,0-10.6-19.3-27-24,0,0,8.6,6.1,10.7,12.4-8.4-7.8-18.9-12.8-30.2-14.4-17.5-2.5-30.8,2.3-30.8,2.3,0,0,15.7-.1,30,4.8,16.3,5.6,23.2,13.8,23.2,13.8h0ZM331.1,299.5c-.5,8.7,4.3,13.4,4.3,13.4,0,0-1-12.9,6.5-27.4-4,0-10.3,5.4-10.8,14ZM270.9,218.2c-3.2-2-6.7-3.6-10.4-4.6,21.3-4.7,47,1.8,47,1.8,0,0-17.5-12.7-39.9-12.7-31.7,0-47.8,18.9-47.8,18.9,0,0,8-6,28.6-6.8-35.8,11.2-42.9,43.2-42.9,43.2,0,0,20.5-38,65.2-39.8ZM360.4,313.3c-2.4,6.3-9.2,8.8-9.2,8.8l-.3,1.3c-2.8-1.1-5.9-1.2-8.8-.3,3.2-4.5,2.4-11.8,2.4-11.8-2.6,5.4-7,9.6-12.5,11.9,4.1,3,9.1,4.7,14.1,4.7,4.4,0,7.8-1.2,10.3-3.4,4.1-3.7,4.4-9.7,4-11.1ZM371.5,271.4c-10.6-4.2-21.9-1.4-21.9-1.4-1.1,7.3-3.1,16.9-3.1,16.9,0,0,7.7-7.5,10.1-15.6l1.2,2.8s4.7-2.9,9.4.4l1.9-1.5c0,.3.4,14.1.4,14.1,0,0,11.2-12,2-15.7ZM355.5,327.7s-1,4.2-7.9,5.7c1.4.8,2.6,1.7,3.8,2.8,0,0-3.3,4.7-11.5,4.7-10.8,0-17.5-9.4-17.5-9.4,0,0,4.9,2.4,9.6,2-18.5-11.4-8.2-32.8-8.2-32.8,0,0-1.3,14.7,4.6,22.1,8.4,10.3,23.9,6.5,27.2,4.9Z"/>
    </clipPath>
    <linearGradient id="Adsız_degrade_8" data-name="Adsız degrade 8" x1="-122.4" y1="512.2" x2="-121.4" y2="512.2" gradientTransform="translate(21932.6 -90491.9) scale(177.5 177.2)" gradientUnits="userSpaceOnUse">
      <stop offset="0" stop-color="#fcd190"/>
      <stop offset=".1" stop-color="#b7a785"/>
      <stop offset=".2" stop-color="#fde1b1"/>
      <stop offset=".5" stop-color="#b68a67"/>
      <stop offset=".6" stop-color="#fde1b1"/>
      <stop offset="1" stop-color="#b68a67"/>
    </linearGradient>
  </defs>
  <g id="surface1">
    <g class="st25">
      <path class="st13" d="M296.2,389.9v-.2h-.9v-.2h-.9v-.2h-.5v-.2h-.7v-.2h-.7v-.2h-.5v-.2h-.5v-.2h-.7v-.2h-.5v-.2h-.5v-.2h-.5v-.2h-.5v-.2h-.5v-.2h-.5v-.2h-.5v-.2h-.4v-.2h-.5v-.2h-.5v-.2h-.5v-.2h-.4v-.2h-.5v-.2h-.5v-.2h-.4v-.2h-.5v-.2h-.5v-.2h-.4v-.2h-.5v-.2h-.4v-.2h-.5v-.2h-.4v-.2h-.5v-.2h-.4v-.2h-.5v-.2h-.4v-.2h-.5v-.2h-.4v-.2h-.4v-.2h-.5v-.2h-.4v-.2h-.4v-.2h-.4v-.2h-.5v-.2h-.4v-.2h-.4v-.2h-.5v-.2h-.4v-.2h-.4v-.2h-.4v-.2h-.5v-.2h-.4v-.2h-.4v-.2h-.4v-.2h-.4v-.2h-.5v-.2h-.4v-.2h-.4v-.2h-.4v-.2h-.4v-.2h-.4v-.2h-.4v-.2h-.5v-.2h-.4v-.2h-.4v-.2h-.4v-.2h-.4v-.2h-.4v-.2h-.4v-.2h-.4v-.2h-.4v-.2h-.4v-.2h-.4v-.2h-.4v-.2h-.4v-.2h-.4v-.2h-.4v-.2h-.4v-.2h-.4v-.2h-.4v-.2h-.4v-.2h-.4v-.2h-.4v-.2h-.4v-.2h-.4v-.2h-.4v-.2h-.2v-.2h-.4v-.2h-.4v-.2h-.4v-.2h-.4v-.2h-.4v-.2h-.4v-.2h-.4v-.2h-.2v-.2h-.4v-.2h-.4v-.2h-.4v-.2h-.4v-.2h-.4v-.2h-.2v-.2h-.4v-.2h-.4v-.2h-.4v-.2h-.4v-.2h-.4v-.2h-.2v-.2h-.4v-.2h-.4v-.2h-.2v-.2h-.4v-.2h-.4v-.2h-.4v-.2h-.2v-.2h-.4v-.2h-.4v-.2h-.4v-.2h-.2v-.2h-.4v-.2h-.4v-.2h-.2v-.2h-.4v-.2h-.4v-.2h-.4v-.2h-.2v-.2h-.4v-.2h-.4v-.2h-.2v-.2h-.4v-.2h-.2v-.2h-.4v-.2h-.4v-.2h-.2v-.2h-.4v-.2h-.4v-.2h-.2v-.2h-.4v-.2h-.2v-.2h-.4v-.2h-.4v-.2h-.2v-.2h-.4v-.2h-.4v-.2h-.2v-.2h-.4v-.2h-.2v-.2h-.4v-.2h-.2v-.2h-.4v-.2h-.2v-.2h-.4v-.2h-.2v-.2h-.4v-.2h-.4v-.2h-.2v-.2h-.4v-.2h-.2v-.2h-.4v-.2h-.2v-.2h-.4v-.2h-.2v-.2h-.4v-.2h-.2v-.2h-.4v-.2h-.2v-.2h-.4v-.2h-.2v-.2h-.4v-.2h-.2v-.2h-.4v-.2h-.2v-.2h-.2v-.2h-.4v-.2h-.2v-.2h-.4v-.2h-.2v-.2h-.4v-.2h-.2v-.2h-.2v-.2h-.4v-.2h-.2v-.2h-.4v-.2h-.2v-.2h-.4v-.2h-.2v-.2h-.2v-.2h-.4v-.2h-.2v-.2h-.4v-.2h-.2v-.2h-.4v-.2h-.2v-.2h-.2v-.2h-.4v-.2h-.2v-.2h-.2v-.2h-.4v-.2h-.2v-.2h-.2v-.2h-.4v-.2h-.2v-.2h-.2v-.2h-.4v-.2h-.2v-.2h-.2v-.2h-.4v-.2h-.2v-.2h-.4v-.2h-.2v-.2h-.2v-.2h-.2v-.2h-.4v-.2h-.2v-.2h-.2v-.2h-.4v-.2h-.2v-.2h-.2v-.2h-.2v-.2h-.4v-.2h-.2v-.2h-.2v-.2h-.4v-.2h-.2v-.2h-.2v-.2h-.2v-.2h-.2v-.2h-.4v-.2h-.2v-.2h-.2v-.2h-.2v-.2h-.4v-.2h-.2v-.2h-.2v-.2h-.2v-.2h-.2v-.2h-.4v-.2h-.2v-.2h-.2v-.2h-.2v-.2h-.4v-.2h-.2v-.2h-.2v-.2h-.2v-.2h-.4v-.2h-.2v-.2h-.2v-.2h-.2v-.2h-.2v-.2h-.2v-.2h-.2v-.2h-.4v-.2h-.2v-.2h-.2v-.2h-.2v-.2h-.2v-.2h-.2v-.2h-.2v-.2h-.4v-.2h-.2v-.2h-.2v-.2h-.2v-.2h-.2v-.2h-.2v-.2h-.2v-.2h-.4v-.2h-.2v-.2h-.2v-.2h-.2v-.2h-.2v-.2h-.2v-.2h-.2v-.2h-.4v-.2h-.2v-.2h-.2v-.2h-.2v-.2h-.2v-.2h-.2v-.2h-.2v-.2h-.2v-.2h-.2v-.2h-.2v-.2h-.2v-.2h-.2v-.2h-.2v-.2h-.2v-.2h-.2v-.2h-.4v-.2h-.2v-.2h-.2v-.2h-.2v-.2h-.2v-.2h-.2v-.2h-.2v-.2h-.2v-.2h-.2v-.2h-.2v-.2h-.2v-.2h-.2v-.2h-.2v-.2h-.2v-.2h-.2v-.2h-.2v-.2h-.2v-.2h-.2v-.2h-.2v-.2h-.2v-.2h-.2v-.2h-.2v-.2h-.2v-.2h-.2v-.2h-.2v-.2h-.2v-.2h-.2v-.2h-.2v-.2h-.2v-.2h-.2v-.2h-.2v-.2h-.2v-.2h-.2v-.2h-.2v-.2h-.2v-.2h-.2v-.2h-.2v-.2h-.2v-.2h-.2v-.2h-.2v-.2h-.2v-.2h-.2v-.2h-.2v-.2h-.2v-.2h-.2v-.4h-.2v-.2h-.2v-.2h-.2v-.2h-.2v-.2h-.2v-.2h-.2v-.2h-.2v-.2h-.2v-.2h-.2v-.2h-.2v-.2h-.2v-.2h-.2v-.4h-.2v-.2h-.2v-.2h-.2v-.2h-.2v-.2h-.2v-.2h-.2v-.2h-.2v-.4h-.2v-.2h-.2v-.2h-.2v-.2h-.2v-.2h-.2v-.2h-.2v-.2h-.2v-.2h-.2v-.4h-.2v-.2h-.2v-.2h-.2v-.2h-.2v-.2h-.2v-.2h-.2v-.2h-.2v-.4h-.2v-.2h-.2v-.2h-.2v-.2h-.2v-.2h-.2v-.4h-.2v-.2h-.2v-.2h-.2v-.2h-.2v-.4h-.2v-.2h-.2v-.2h-.2v-.2h-.2v-.4h-.2v-.2h-.2v-.2h-.2v-.2h-.2v-.4h-.2v-.2h-.2v-.2h-.2v-.4h-.2v-.2h-.2v-.2h-.2v-.2h-.2v-.4h-.2v-.2h-.2v-.2h-.2v-.2h-.2v-.4h-.2v-.2h-.2v-.2h-.2v-.4h-.2v-.2h-.2v-.2h-.2v-.4h-.2v-.2h-.2v-.4h-.2v-.2h-.2v-.2h-.2v-.4h-.2v-.2h-.2v-.4h-.2v-.2h-.2v-.2h-.2v-.4h-.2v-.2h-.2v-.2h-.2v-.4h-.2v-.2h-.2v-.4h-.2v-.2h-.2v-.2h-.2v-.4h-.2v-.2h-.2v-.4h-.2v-.2h-.2v-.4h-.2v-.2h-.2v-.4h-.2v-.2h-.2v-.4h-.2v-.2h-.2v-.4h-.2v-.2h-.2v-.4h-.2v-.2h-.2v-.4h-.2v-.2h-.2v-.4h-.2v-.2h-.2v-.4h-.2v-.2h-.2v-.4h-.2v-.4h-.2v-.2h-.2v-.4h-.2v-.4h-.2v-.2h-.2v-.4h-.2v-.4h-.2v-.2h-.2v-.4h-.2v-.2h-.2v-.4h-.2v-.4h-.2v-.4h-.2v-.4h-.2v-.2h-.2v-.4h-.2v-.4h-.2v-.4h-.2v-.4h-.2v-.2h-.2v-.4h-.2v-.4h-.2v-.4h-.2v-.4h-.2v-.2h-.2v-.4h-.2v-.4h-.2v-.4h-.2v-.4h-.2v-.4h-.2v-.4h-.2v-.4h-.2v-.4h-.2v-.4h-.2v-.4h-.2v-.4h-.2v-.4h-.2v-.4h-.2v-.4h-.2v-.4h-.2v-.5h-.2v-.4h-.2v-.4h-.2v-.4h-.2v-.4h-.2v-.4h-.2v-.4h-.2v-.4h-.2v-.4h-.2v-.4h-.2v-.4h-.2v-.5h-.2v-.4h-.2v-.5h-.2v-.4h-.2v-.5h-.2v-.4h-.2v-.5h-.2v-.4h-.2v-.5h-.2v-.4h-.2v-.5h-.2v-.4h-.2v-.5h-.2v-.4h-.2v-.5h-.2v-.4h-.2v-.5h-.2v-.4h-.2v-.5h-.2v-.5h-.2v-.5h-.2v-.5h-.2v-.5h-.2v-.5h-.2v-.5h-.2v-.5h-.2v-.7h-.2v-.5h-.2v-.5h-.2v-.5h-.2v-.5h-.2v-.5h-.2v-.5h-.2v-.5h-.2v-.7h-.2v-.7h-.2v-.9h-.2v-.7h-.2v-.7h-.2v-.7h-.2v-.7h-.2v-.7h-.2v-.7h-.2v-.7h-.2v-.7h-.2v-.7h-.2v-1.1h-.2v-1.1h-.2v-1.1h-.2v-.9h-.2v-1.1h-.2v-1.1h-.2v-1.1h-.2v-.9h-.2v-1.6h-.2v-1.8h-.2v-1.8h-.2v-1.6h-.2v-1.8h-.2v-3.4h-.2V61.7h.5v.2h.5v.2h.5v.2h.5v.2h.5v.2h.5v.2h.5v.2h.5v.2h.5v.2h.5v.2h.5v.2h.5v.2h.5v.2h.5v.2h.5v.2h.7v.2h.5v.2h.7v.2h.5v.2h.7v.2h.7v.2h.7v.2h.7v.2h.9v.2h.7v.2h.7v.2h.7v.2h.7v.2h.7v.2h.7v.2h.9v.2h.9v.2h1.1v.2h.9v.2h1.1v.2h.9v.2h1.1v.2h.9v.2h1.1v.2h.9v.2h1.1v.2h.9v.2h1.3v.2h1.6v.2h1.6v.2h1.8v.2h1.6v.2h1.6v.2h1.6v.2h2.2v.2h3.6v.2h3.6v.2h7.4v-.2h3.8v-.2h3.4v-.2h1.6v-.2h1.6v-.2h1.6v-.2h1.6v-.2h1.6v-.2h1.6v-.2h1.1v-.2h.9v-.2h.9v-.2h.9v-.2h.9v-.2h1.1v-.2h.9v-.2h.9v-.2h.9v-.2h1.1v-.2h.7v-.2h.7v-.2h.5v-.2h.7v-.2h.7v-.2h.7v-.2h.7v-.2h.5v-.2h.7v-.2h.7v-.2h.5v-.2h.7v-.2h.5v-.2h.5v-.2h.5v-.2h.5v-.2h.5v-.2h.5v-.2h.4v-.2h.5v-.2h.5v-.2h.5v-.2h.4v-.2h.5v-.2h.5v-.2h.4v-.2h.5v-.2h.4v-.2h.4v-.2h.5v-.2h.4v-.2h.5v-.2h.4v-.2h.4v-.2h.5v-.2h.4v-.2h.4v-.2h.5v-.2h.4v-.2h.4v-.2h.4v-.2h.4v-.2h.4v-.2h.4v-.2h.4v-.2h.4v-.2h.4v-.2h.4v-.2h.4v-.2h.4v-.2h.4v-.2h.4v-.2h.4v-.2h.2v-.2h.4v-.2h.4v-.2h.4v-.2h.2v-.2h.4v-.2h.4v-.2h.4v-.2h.2v-.2h.4v-.2h.4v-.2h.4v-.2h.2v-.2h.4v-.2h.4v-.2h.2v-.2h.4v-.2h.2v-.2h.4v-.2h.2v-.2h.4v-.2h.2v-.2h.4v-.2h.2v-.2h.4v-.2h.4v-.2h.2v-.2h.4v-.2h.2v-.2h.4v-.2h.2v-.2h.4v-.2h.2v-.2h.2v-.2h.4v-.2h.2v-.2h.2v-.2h.4v-.2h.2v-.2h.2v-.2h.4v-.2h.2v-.2h.2v-.2h.4v-.2h.2v-.2h.4v-.2h.2v-.2h.2v-.2h.4v-.2h.2v-.2h.2v-.2h.2v-.2h.2v-.2h.4v-.2h.2v-.2h.2v-.2h.2v-.2h.2v-.2h.4v-.2h.2v-.2h.2v-.2h.2v-.2h.2v-.2h.4v-.2h.2v-.2h.2v-.2h.2v-.2h.2v-.2h.4v-.2h.2v-.2h.2v-.2h.2v-.2h.2v-.2h.2v-.2h.2v-.2h.2v-.2h.2v-.2h.2v-.2h.4v-.2h.2v-.2h.2v-.2h.2v-.2h.2v-.2h.2v-.2h.2v-.2h.2v-.2h.2v-.2h.2v-.2h.2v-.2h.2v-.2h.2v-.2h.2v-.2h.2v-.2h.2v-.2h.2v-.2h.2v-.2h.2v-.2h.2v-.2h.2v-.2h.2v-.2h.2v-.2h.2v-.2h.2v-.2h.2v-.2h.2v-.2h.2v-.2h.2v-.2h.2v-.2h.2v-.2h.2v-.2h.2v-.2h.2v-.2h.5v.2h.2v.2h.2v.2h.2v.2h.2v.2h.2v.2h.2v.2h.2v.2h.2v.2h.2v.2h.2v.2h.2v.2h.2v.2h.2v.2h.2v.2h.2v.2h.2v.2h.2v.2h.2v.2h.2v.2h.2v.2h.2v.2h.2v.2h.2v.2h.2v.2h.2v.2h.2v.2h.2v.2h.2v.2h.2v.2h.2v.2h.2v.2h.2v.2h.4v.2h.2v.2h.2v.2h.2v.2h.2v.2h.2v.2h.2v.2h.2v.2h.2v.2h.2v.2h.2v.2h.4v.2h.2v.2h.2v.2h.2v.2h.2v.2h.4v.2h.2v.2h.2v.2h.2v.2h.2v.2h.4v.2h.2v.2h.2v.2h.2v.2h.2v.2h.4v.2h.2v.2h.2v.2h.2v.2h.2v.2h.4v.2h.2v.2h.2v.2h.4v.2h.2v.2h.2v.2h.4v.2h.2v.2h.4v.2h.2v.2h.2v.2h.4v.2h.2v.2h.2v.2h.4v.2h.2v.2h.2v.2h.4v.2h.2v.2h.4v.2h.2v.2h.4v.2h.2v.2h.4v.2h.2v.2h.4v.2h.2v.2h.4v.2h.2v.2h.4v.2h.4v.2h.2v.2h.4v.2h.2v.2h.4v.2h.2v.2h.4v.2h.4v.2h.4v.2h.2v.2h.4v.2h.4v.2h.4v.2h.2v.2h.4v.2h.4v.2h.2v.2h.4v.2h.4v.2h.4v.2h.4v.2h.4v.2h.4v.2h.4v.2h.4v.2h.4v.2h.4v.2h.4v.2h.4v.2h.4v.2h.4v.2h.4v.2h.4v.2h.4v.2h.4v.2h.4v.2h.4v.2h.5v.2h.4v.2h.4v.2h.5v.2h.4v.2h.5v.2h.4v.2h.4v.2h.5v.2h.4v.2h.5v.2h.4v.2h.5v.2h.5v.2h.4v.2h.5v.2h.5v.2h.5v.2h.5v.2h.5v.2h.5v.2h.5v.2h.5v.2h.5v.2h.5v.2h.7v.2h.5v.2h.7v.2h.7v.2h.7v.2h.5v.2h.7v.2h.7v.2h.5v.2h.7v.2h.9v.2h.9v.2h1.1v.2h.9v.2h.9v.2h.9v.2h.9v.2h.9v.2h1.1v.2h.9v.2h1.3v.2h1.6v.2h1.6v.2h1.6v.2h1.6v.2h1.6v.2h2.2v.2h3.8v.2h11.3v-.2h3.6v-.2h3.1v-.2h1.6v-.2h1.6v-.2h1.6v-.2h1.6v-.2h1.5v-.2h1.6v-.2h1.6v-.2h1.3v-.2h.9v-.2h.9v-.2h1.1v-.2h.9v-.2h.9v-.2h.9v-.2h1.1v-.2h.9v-.2h.9v-.2h1.1v-.2h.9v-.2h.9v-.2h.7v-.2h.7v-.2h.7v-.2h.7v-.2h.7v-.2h.7v-.2h.7v-.2h.7v-.2h.7v-.2h.7v-.2h.5v-.2h.7v-.2h.7v-.2h.5v-.2h.5v-.2h.7v-.2h.5v-.2h.5v-.2h.5v-.2h.5v-.2h.4v-.2h.5v-.2h.5v-.2h.5v-.2h.5v-.2h.5v-.2h.5v-.2h.5v-.2h.4v-.2h.5v-.2h.5v-.2h.4v181.2h-.2v2.7h-.2v1.8h-.2v1.8h-.2v1.8h-.2v1.6h-.2v1.5h-.2v1.1h-.2v1.1h-.2v.9h-.2v1.1h-.2v1.1h-.2v1.1h-.2v1.1h-.2v.9h-.2v.7h-.2v.7h-.2v.9h-.2v.7h-.2v.7h-.2v.7h-.2v.7h-.2v.7h-.2v.7h-.2v.7h-.2v.7h-.2v.7h-.2v.5h-.2v.5h-.2v.7h-.2v.5h-.2v.5h-.2v.5h-.2v.5h-.2v.5h-.2v.5h-.2v.5h-.2v.7h-.2v.5h-.2v.5h-.2v.5h-.2v.5h-.2v.5h-.2v.4h-.2v.5h-.2v.4h-.2v.5h-.2v.4h-.2v.5h-.2v.4h-.2v.5h-.2v.4h-.2v.5h-.2v.4h-.2v.5h-.2v.4h-.2v.5h-.2v.4h-.2v.5h-.2v.4h-.2v.5h-.2v.4h-.2v.4h-.2v.4h-.2v.4h-.2v.4h-.2v.4h-.2v.4h-.2v.4h-.2v.4h-.2v.4h-.2v.5h-.2v.4h-.2v.4h-.2v.4h-.2v.4h-.2v.4h-.2v.4h-.2v.4h-.2v.4h-.2v.4h-.2v.4h-.2v.4h-.2v.4h-.2v.4h-.2v.4h-.2v.2h-.2v.4h-.2v.4h-.2v.4h-.2v.4h-.2v.2h-.2v.4h-.2v.4h-.2v.4h-.2v.4h-.2v.4h-.2v.2h-.2v.4h-.2v.4h-.2v.4h-.2v.2h-.2v.4h-.2v.2h-.2v.4h-.2v.4h-.2v.2h-.2v.4h-.2v.4h-.2v.2h-.2v.4h-.2v.4h-.2v.2h-.2v.4h-.2v.2h-.2v.4h-.2v.2h-.2v.4h-.2v.2h-.2v.4h-.2v.2h-.2v.4h-.2v.2h-.2v.4h-.2v.4h-.2v.2h-.2v.4h-.2v.2h-.2v.4h-.2v.2h-.2v.2h-.2v.4h-.2v.2h-.2v.4h-.2v.2h-.2v.2h-.2v.4h-.2v.2h-.2v.4h-.2v.2h-.2v.2h-.2v.4h-.2v.2h-.2v.4h-.2v.2h-.2v.2h-.2v.4h-.2v.2h-.2v.4h-.2v.2h-.2v.2h-.2v.4h-.2v.2h-.2v.4h-.2v.2h-.2v.2h-.2v.2h-.2v.4h-.2v.2h-.2v.2h-.2v.2h-.2v.4h-.2v.2h-.2v.2h-.2v.4h-.2v.2h-.2v.2h-.2v.2h-.2v.4h-.2v.2h-.2v.2h-.2v.2h-.2v.4h-.2v.2h-.2v.2h-.2v.2h-.2v.4h-.2v.2h-.2v.2h-.2v.4h-.2v.2h-.2v.2h-.2v.2h-.2v.2h-.2v.2h-.2v.2h-.2v.4h-.2v.2h-.2v.2h-.2v.2h-.2v.2h-.2v.2h-.2v.2h-.2v.4h-.2v.2h-.2v.2h-.2v.2h-.2v.2h-.2v.2h-.2v.4h-.2v.2h-.2v.2h-.2v.2h-.2v.2h-.2v.2h-.2v.2h-.2v.4h-.2v.2h-.2v.2h-.2v.2h-.2v.2h-.2v.2h-.2v.2h-.2v.2h-.2v.2h-.2v.2h-.2v.2h-.2v.2h-.2v.2h-.2v.2h-.2v.4h-.2v.2h-.2v.2h-.2v.2h-.2v.2h-.2v.2h-.2v.2h-.2v.2h-.2v.2h-.2v.2h-.2v.2h-.2v.2h-.2v.2h-.2v.2h-.2v.2h-.2v.2h-.2v.2h-.2v.2h-.2v.2h-.2v.2h-.2v.2h-.2v.2h-.2v.2h-.2v.2h-.2v.2h-.2v.2h-.2v.2h-.2v.2h-.2v.2h-.2v.2h-.2v.2h-.2v.2h-.2v.2h-.2v.2h-.2v.2h-.2v.2h-.2v.2h-.2v.2h-.2v.2h-.2v.2h-.2v.2h-.2v.2h-.2v.2h-.2v.2h-.2v.2h-.4v.2h-.2v.2h-.2v.2h-.2v.2h-.2v.2h-.2v.2h-.2v.2h-.2v.2h-.2v.2h-.2v.2h-.2v.2h-.2v.2h-.4v.2h-.2v.2h-.2v.2h-.2v.2h-.2v.2h-.2v.2h-.2v.2h-.2v.2h-.4v.2h-.2v.2h-.2v.2h-.2v.2h-.2v.2h-.2v.2h-.2v.2h-.2v.2h-.4v.2h-.2v.2h-.2v.2h-.2v.2h-.2v.2h-.2v.2h-.2v.2h-.4v.2h-.2v.2h-.2v.2h-.2v.2h-.2v.2h-.2v.2h-.4v.2h-.2v.2h-.2v.2h-.2v.2h-.2v.2h-.4v.2h-.2v.2h-.2v.2h-.2v.2h-.4v.2h-.2v.2h-.2v.2h-.2v.2h-.2v.2h-.4v.2h-.2v.2h-.2v.2h-.2v.2h-.2v.2h-.4v.2h-.2v.2h-.2v.2h-.2v.2h-.4v.2h-.2v.2h-.2v.2h-.4v.2h-.2v.2h-.2v.2h-.2v.2h-.4v.2h-.2v.2h-.2v.2h-.4v.2h-.2v.2h-.2v.2h-.4v.2h-.2v.2h-.2v.2h-.4v.2h-.2v.2h-.2v.2h-.4v.2h-.2v.2h-.2v.2h-.4v.2h-.2v.2h-.2v.2h-.4v.2h-.2v.2h-.2v.2h-.4v.2h-.2v.2h-.4v.2h-.2v.2h-.2v.2h-.4v.2h-.2v.2h-.4v.2h-.2v.2h-.2v.2h-.4v.2h-.2v.2h-.4v.2h-.2v.2h-.4v.2h-.2v.2h-.2v.2h-.4v.2h-.2v.2h-.4v.2h-.2v.2h-.4v.2h-.2v.2h-.2v.2h-.4v.2h-.2v.2h-.4v.2h-.2v.2h-.4v.2h-.2v.2h-.4v.2h-.2v.2h-.4v.2h-.2v.2h-.4v.2h-.4v.2h-.2v.2h-.4v.2h-.2v.2h-.4v.2h-.2v.2h-.4v.2h-.2v.2h-.4v.2h-.2v.2h-.4v.2h-.2v.2h-.4v.2h-.4v.2h-.2v.2h-.4v.2h-.2v.2h-.4v.2h-.4v.2h-.2v.2h-.4v.2h-.2v.2h-.4v.2h-.4v.2h-.2v.2h-.4v.2h-.4v.2h-.2v.2h-.4v.2h-.2v.2h-.4v.2h-.4v.2h-.2v.2h-.4v.2h-.4v.2h-.4v.2h-.2v.2h-.4v.2h-.4v.2h-.2v.2h-.4v.2h-.4v.2h-.4v.2h-.2v.2h-.4v.2h-.4v.2h-.4v.2h-.2v.2h-.4v.2h-.4v.2h-.2v.2h-.4v.2h-.4v.2h-.4v.2h-.4v.2h-.4v.2h-.2v.2h-.4v.2h-.4v.2h-.4v.2h-.4v.2h-.4v.2h-.2v.2h-.4v.2h-.4v.2h-.4v.2h-.4v.2h-.4v.2h-.4v.2h-.4v.2h-.2v.2h-.4v.2h-.4v.2h-.4v.2h-.4v.2h-.4v.2h-.4v.2h-.4v.2h-.4v.2h-.4v.2h-.4v.2h-.4v.2h-.4v.2h-.4v.2h-.4v.2h-.4v.2h-.4v.2h-.4v.2h-.4v.2h-.4v.2h-.4v.2h-.4v.2h-.4v.2h-.4v.2h-.5v.2h-.4v.2h-.4v.2h-.4v.2h-.4v.2h-.4v.2h-.4v.2h-.5v.2h-.4v.2h-.4v.2h-.4v.2h-.4v.2h-.5v.2h-.4v.2h-.4v.2h-.4v.2h-.5v.2h-.4v.2h-.4v.2h-.4v.2h-.5v.2h-.4v.2h-.4v.2h-.5v.2h-.4v.2h-.4v.2h-.5v.2h-.4v.2h-.5v.2h-.4v.2h-.5v.2h-.4v.2h-.5v.2h-.4v.2h-.5v.2h-.4v.2h-.5v.2h-.5v.2h-.4v.2h-.5v.2h-.4v.2h-.5v.2h-.5v.2h-.5v.2h-.4v.2h-.5v.2h-.5v.2h-.5v.2h-.5v.2h-.5v.2h-.5v.2h-.5v.2h-.5v.2h-.5v.2h-.7v.2h-.5v.2h-.7v.2h-.5v.2h-.7v.2h-.9v.2"/>
    </g>
    <path class="st16" d="M297.2,381.1c-7.5-1.6-39.5-13.3-69.8-36.7-17.6-13.6-31.6-28.8-41.5-45.1-12-19.3-18.3-41.5-18.3-64.2V73.4c15.2,4.1,30.8,6.2,46.5,6.2,33.4,0,61.8-10.3,82.6-29.9,21,19.9,48.6,30,82.1,30,15.9,0,31.7-2.2,47-6.5v161.8c0,22.6-6.2,44.8-18.1,64.1-9.9,16.3-23.7,31.5-41.1,45.1-30.2,23.5-61.9,35.2-69.3,36.8"/>
    <path class="st7" d="M296.7,45.8c-24.7,24.7-56.4,31-82.6,31s-33.4-2.4-49.4-7.3v165.5c0,101.5,118.4,146.4,132.5,148.9,14.3-2.5,131.5-47.7,131.5-148.9V69.3c-16.2,5-33,7.5-49.9,7.5-25.9,0-57.4-6.4-82.1-31.1h0ZM296.7,53.6c11.2,10.1,24.4,17.7,38.8,22.4,13.2,4.4,27.8,6.6,43.3,6.6,14.9,0,29.7-1.9,44.1-5.6v158.1c0,22.1-6.1,43.8-17.7,62.6-9.7,16-23.3,30.9-40.5,44.3-29.1,22.7-59.4,34.1-67.5,36.1-8.2-2-38.8-13.4-68.1-36-17.3-13.4-31.1-28.3-40.9-44.3-11.7-18.8-17.9-40.6-17.9-62.7V77.1c14.3,3.5,28.9,5.3,43.6,5.4,15.7,0,30.3-2.2,43.6-6.6,14.4-4.6,27.7-12.2,39-22.3"/>
    <path class="st7" d="M356.9,184.1c-12.2-2.3-25.1-3.4-38.3-4.1-.7,0-6-.3-6-6v-49.5h36.5c4.8,0,7.7,2.7,7.7,5.8v7.6l-12.7-.7c-1.4,0-2.6-1-2.6-2.2v-3.4h-13.4v41.6s10.5.4,13.4,1.1v-22.8c-.4,0-6.7-.4-6.7-.4l2.5-6.9,12.2.5s7.5.3,7.5,8.1,0,30.4,0,31.5"/>
    <g class="st11">
      <g class="st23">
        <path class="st22" d="M313.4,125.3v48.6c0,4.3,3.2,5.1,5.2,5.2,10.6.6,24.3,1.6,37.4,4v-30.5c0-6.9-6.4-7.3-6.6-7.3l-11.5-.4-1.9,5.3c2.3.2,5.2.3,5.5.3h.8v24.7l-1-.2c-2.9-.6-13.2-1-13.3-1h-.8v-43.3h15.1v4.2c0,.7.9,1.3,1.8,1.4l11.9.6v-6.7c0-2.9-2.9-4.9-6.9-4.9h-35.6ZM357.7,185.1l-1-.2c-13.3-2.5-27.4-3.5-38.2-4.1-4.3-.2-6.8-2.8-6.8-6.9v-50.3h37.3c5.6,0,8.5,3.3,8.6,6.6v8.4l-13.6-.7c-1.9,0-3.4-1.4-3.4-3v-2.6h-11.8v39.9c2.3.1,8.6.4,11.8.9v-21c-1.5,0-4.8-.3-5.9-.4h-1.1c0,0,3.1-8.6,3.1-8.6l12.8.5c0,0,8.3.4,8.3,8.9v32.5h0"/>
      </g>
    </g>
    <path class="st7" d="M304.6,124.4h-15.3v19l-13.5-19h-15.4v56.7c5.1-.6,10.2-.8,15.4-1.1v-36.9l13.5,19.4v16.8c3,0,5.9-.1,8.9-.1s4.3,0,6.5,0v-54.9"/>
    <g class="st17">
      <g class="st3">
        <path class="st4" d="M261.2,125.3v54.9c3.2-.3,6.4-.5,9.6-.7,1.4,0,2.8-.2,4.2-.2v-38.7l15.2,21.8v16.2c2.7,0,5.5,0,8.1,0s3.6,0,5.7,0v-53.2h-13.7v20.8s-14.8-20.8-14.8-20.8h-14.1ZM259.5,182.1v-58.5h16.7l12.3,17.3v-17.3h17v56.6h-.9c-2.5,0-4.5,0-6.5,0-2.9,0-5.9,0-8.9.1h-.9v-17.4s-11.8-17-11.8-17v35h-.8c-1.7.2-3.3.3-5,.4-3.4.2-7,.4-10.4.8h-.9"/>
      </g>
    </g>
    <path class="st7" d="M407.5,141.7v-10.6c0-4.4-3.4-6.7-7.4-6.7h-35.9v21.1c0,6.4,7.1,7.2,7.1,7.2,0,0,16.6,1.9,20.8,2.4v27.1c-4-1.1-12.5-2.8-12.5-2.8v-11.5c-.1-1.3-1.1-2.4-2.4-2.7-3.8-.7-13-2.1-13-2.1v22.3c14.8,3,29.3,7.4,43.3,13v-41.1c0-8.1-7.5-9.4-7.5-9.4,0,0-6.5-1.1-20.4-2.1v-14.3h12.5v5.4c0,2.8,2.9,3.1,2.9,3.1l12.5,1.6"/>
    <g class="st12">
      <g class="st0">
        <path class="st8" d="M365,184.9c14.2,2.9,28.2,7.1,41.7,12.4v-39.9c.2-4.1-2.7-7.8-6.8-8.6v-.8c.1,0,0,.8,0,.8,0,0-6.5-1.1-20.3-2.1h-.8v-16h14.1v6.3c0,2,2.1,2.2,2.2,2.2l11.6,1.5v-9.6c0-1.7-.6-3.3-1.9-4.3-1.3-1-2.9-1.6-4.6-1.5h-35.1v20.3c0,5.6,6.1,6.4,6.4,6.4s16.6,1.9,20.8,2.4h.7v29l-1.1-.3c-3.9-1.1-12.4-2.8-12.4-2.8h-.7v-12.3c-.1-.9-.8-1.7-1.8-1.9-3-.5-9.5-1.5-12-1.9,0,3.5,0,15.3,0,20.6ZM408.4,199.8l-1.2-.5c-14-5.6-28.4-9.9-43.2-12.9h-.7v-24.1h1c0,.1,9.2,1.5,13,2.2,1.7.3,2.9,1.8,3.1,3.5v10.8c1.9.4,7.3,1.5,10.8,2.4v-25.3c-5.1-.7-19.9-2.3-20.1-2.3-2.7-.3-7.8-2.4-7.8-8.1v-22h36.8c2.1,0,4.1.6,5.7,1.9,1.6,1.4,2.6,3.5,2.5,5.6v11.5l-13.4-1.8c-2.1-.1-3.7-1.8-3.7-3.9v-4.6h-10.8v12.7c6.8.5,11.7,1.1,14.7,1.4,2.6.3,4,.5,4.8.7h.1c4.9.8,8.5,5.2,8.3,10.2v42.3"/>
      </g>
    </g>
    <path class="st7" d="M231.1,185.4l-9.9-33.4-4,.4,12.2-28h-16l-10.8,22.7v-22.7h-16.9v74.1c5.5-2.4,11.2-4.4,16.9-6.1v-37.6l2.8-.5,9.2,34.6c4.6-1.4,16.6-3.6,16.6-3.6"/>
    <g class="st1">
      <g class="st14">
        <path class="st21" d="M186.4,125.3v72c5-2.1,10.1-3.9,15.2-5.5v-37.8l4.2-.7,9.2,34.6c4.2-1.2,12.2-2.7,14.9-3.2l-9.5-31.8-4.8.4,12.2-28.1h-14.2l-12.1,25.6v-25.6h-15.2ZM184.8,199.9v-76.3h18.6v19.8l9.4-19.8h17.8l-12.1,27.9,3.3-.3,10.4,34.9-.9.2c-.1,0-12,2.2-16.5,3.5l-.8.3-9.2-34.8-1.3.2v37.6l-.6.2c-5.7,1.7-11.3,3.7-16.8,6.1l-1.2.5"/>
      </g>
    </g>
    <path class="st7" d="M252.3,124.4h-15.8v59.8c5.2-1,10.5-1.8,15.8-2.3v-57.5"/>
    <g class="st5">
      <g class="st6">
        <path class="st2" d="M237.3,125.3v58c2.1-.4,7.3-1.4,14.1-2.1v-55.9h-14.1ZM235.7,185.3v-61.7h17.4v59.1h-.8c-5.3.6-10.5,1.3-15.7,2.4l-1,.2"/>
      </g>
    </g>
    <g class="st9">
      <g class="st19">
        <path class="st15" d="M291.2,107.7l-8.5-13.8h-6.4l1.1,3.3v17.1h5.1v-13l8.1,13h5.5v-20.4h-5.1v13.8h0ZM268.7,111h-7.9v-17.2h-6.2l1.2,3.3v14.5c0,1.4,1.2,2.6,2.6,2.6h15.4v-20.4h-6.2l1.2,3.3v13.9ZM247,97.1h-7.7v6.8h7.7v-6.8ZM249.3,93.8c1.6,0,2.8,1.3,2.8,2.8v8c0,.3,0,.6,0,.8-.1.6-.6,1.2-1.2,1.5-.4.2-.9.3-1.4.3h-10.2v7h-5.1v-17.1l-1.2-3.3h16.3M328.7,97l-2.7,8.3h5.4l-2.7-8.3ZM332.7,93.8l6.5,20.3h-4.9l-1.7-5.3h-7.7l-1.7,5.3h-4.9l5.9-17.2v-3.2s8.6,0,8.6,0ZM355,105.2h-7.7v5.7h7.7v-5.7ZM347.3,101.9h7.6v-4.8h-7.6v4.8ZM357.6,103.7s2.6.7,2.6,2.7v5.6c0,1.3-1,2.3-2.3,2.3h-15.7v-17.1c0,0-1.2-3.3-1.2-3.3h16.7c1.3,0,2.3,1,2.3,2.3v4.8c0,1.9-2.6,2.7-2.6,2.7M310.6,97.1l-1.2-3.3h6.3v20.4h-13.4c-1.5,0-2.6-1.2-2.6-2.7v-4.9h5.1v4.2h5.8v-13.8"/>
      </g>
    </g>
    <path class="st26" d="M296.7,45.7c-24.7,24.7-56.4,31-82.6,31-16.7,0-33.4-2.4-49.4-7.2v165.5c0,101.5,118.4,146.4,132.5,148.9,14.3-2.5,131.5-47.7,131.5-148.9V69.3c-16.2,5-33,7.5-49.9,7.5-25.9,0-57.4-6.4-82.1-31.1ZM296.7,48.1c11.4,10.9,25.1,19.2,40.1,24.1,12.8,4.2,27,6.4,42.1,6.4,16.3,0,32.5-2.4,48.2-6.9v163.4c0,22.8-6.3,45.2-18.3,64.7-9.9,16.4-23.9,31.7-41.4,45.4-30.6,23.9-62.9,35.6-70,37-7.2-1.4-39.7-13.2-70.5-37-17.7-13.7-31.8-28.9-41.8-45.4-12.1-19.5-18.5-41.9-18.5-64.8V71.8c15.5,4.3,31.6,6.6,47.7,6.6,15.2,0,29.5-2.1,42.4-6.4,15-4.8,28.8-13,40.2-24"/>
    <g class="st24">
      <g class="st20">
        <path class="st18" d="M325.5,289.7l-.3,2.3,12-18.1s-9.6-4.5-9.9-12.6c-.3-8.2,7.2-10.7,10.8-10.7-8,4.2-5.1,10.8-5.1,10.8,0,0,1.7-8.3,12.4-4.9-2.4.5-6.5,1.5-7.2,5.8-.4,2.3,1.6,4.7,5.9,4.4,24.4-1.7,30.6,2.7,30.6,2.7,0,0,4.6-14.2-10.3-19.6,5.3-1,10.8,0,15.5,2.6l2.8,1.6-2.2-2.4c-6-6.7-16.9-14.9-34.3-15.6h-.6c0,.1-.2.1-.2.1-4.1,2-9.1,1.4-12.6-1.5-5.2,2.8-12.2-1.3-12.2-1.3,0,0,1.3,3.6,7.3,3.9-4.1,2-9.1,1.4-12.6-1.6-2.8-2.5-4.3-6.2-4-10,6.7,5.1,12.6,2.4,13.7,2.1,8-1.8,10.9,4.7,10.9,4.7,0,0,7.9,3.3,12.5-3.5h0s0,0,0,0l-.9-.8c-.2-.2-5.2-4.4-13.9-7.5-8-2.8-20.9-5.1-36.5,0h0c-1.9.5-11.7,2.8-21.3-1.2l-2.1-.9,1.5,1.7c8,8.7,17.6,7.9,22.5,6.8-3.8,6.1-14.7,8.8-14.7,8.8,3.6,2.5,8.2,3.2,12.4,1.9-7.8,6.4-8.8,14.7-6,20.2,2.3,4.7,7,7.9,12.2,8.3,0,0-3.6-9.6,1.9-18.4-.6,3.7-.8,11,4.5,16.1,9.8,9.6,8.4,20.3,8,22.3l-.3,1.8,1.2-1.4c3.3-3.7,3.9-10.5,3.9-13.4,1.9,2,5.9,7.6,4.6,16.3ZM281.8,233.2s-12.4-9.6-20.7-5.6c-2.6,1.3-5.1,3.4-4.8,8.1.3,5.1,6.4,11.2,17.6,8.4,0,0-10.4.8-12.8-6.3-1.6-4.8,3.3-6.8,3.3-6.8,1.6,4.6,5.8,7.7,10.6,7.8,1.5,0,2.9-.3,4.2-.9-.8-1.8-2.2-3.3-3.8-4.4,1.4-.2,4.3-.6,6.3-.2ZM253.2,250.9l1.2-1.5s-11.9,3.9-22.5,16.9c3.7-10.4,15.1-21.8,15.1-21.8-7.3,2.6-14,6.7-19.7,12,5.7-13.4,28-28.2,28-28.2,0,0-21.3,6.1-34.2,21.4-15.4,18.3-14.9,35.2-14.9,35.2,0,0,4.4-9.3,11.3-15.1-6.4,14.7-3,30.8-1.7,35.7l.6,2.4.4-2.4c1.4-9.1,4.7-21.2,9.2-29.4-1.7,10.5-2,33.9,3.6,44l1.5,2.8-.6-3.2c0-.3-5.9-32.3,22.8-68.7ZM294.8,285.7s-8.9,12.4-10.4,26.5c-3.2-13.1,2.6-32.6,2.6-32.6,0,0-11,10.7-13,24.9-2.5-21.6,7.7-38.6,7.7-38.6,0,0-15.8,12.1-17.1,41.8-.6,14.7,3,29.4,10.2,42.2,0,0-1.5-14.4-.9-22.6,6.2,22.7,21.7,30.4,21.7,30.4,0,0-7.4-9.4-9.4-29.4,2.6,7.7,10.7,18.1,18.8,22.3-20.2-27.8-10.1-64.9-10.1-64.9ZM268.3,268.7c-7.6,5.4-13.7,12.6-17.7,20.9-1-11,7.1-29.5,7.1-29.5-31,37.2-13.8,72.3-13.8,72.3,0,0,.5-13.3,3.3-22.6,1.9,19.7,14.7,33.8,14.7,33.8,0,0-16.4-35.8,6.5-74.9ZM381.6,259.2c-.2.2-4.7,5.4-6.1,9.6l-.2.6h.6c0,0,.1,0,.1,0,.6,0,3.5-.3,5-5l2-7.1-1.5,1.8ZM312,213.5s15-.6,24.2,5.2c0,0-10.6-19.3-27-24,0,0,8.6,6.1,10.7,12.4-8.4-7.8-18.9-12.8-30.2-14.4-17.5-2.5-30.8,2.3-30.8,2.3,0,0,15.7-.1,30,4.8,16.3,5.6,23.2,13.8,23.2,13.8h0ZM331.1,299.5c-.5,8.7,4.3,13.4,4.3,13.4,0,0-1-12.9,6.5-27.4-4,0-10.3,5.4-10.8,14ZM270.9,218.2c-3.2-2-6.7-3.6-10.4-4.6,21.3-4.7,47,1.8,47,1.8,0,0-17.5-12.7-39.9-12.7-31.7,0-47.8,18.9-47.8,18.9,0,0,8-6,28.6-6.8-35.8,11.2-42.9,43.2-42.9,43.2,0,0,20.5-38,65.2-39.8ZM360.4,313.3c-2.4,6.3-9.2,8.8-9.2,8.8l-.3,1.3c-2.8-1.1-5.9-1.2-8.8-.3,3.2-4.5,2.4-11.8,2.4-11.8-2.6,5.4-7,9.6-12.5,11.9,4.1,3,9.1,4.7,14.1,4.7,4.4,0,7.8-1.2,10.3-3.4,4.1-3.7,4.4-9.7,4-11.1ZM371.5,271.4c-10.6-4.2-21.9-1.4-21.9-1.4-1.1,7.3-3.1,16.9-3.1,16.9,0,0,7.7-7.5,10.1-15.6l1.2,2.8s4.7-2.9,9.4.4l1.9-1.5c0,.3.4,14.1.4,14.1,0,0,11.2-12,2-15.7ZM355.5,327.7s-1,4.2-7.9,5.7c1.4.8,2.6,1.7,3.8,2.8,0,0-3.3,4.7-11.5,4.7-10.8,0-17.5-9.4-17.5-9.4,0,0,4.9,2.4,9.6,2-18.5-11.4-8.2-32.8-8.2-32.8,0,0-1.3,14.7,4.6,22.1,8.4,10.3,23.9,6.5,27.2,4.9"/>
      </g>
    </g>
  </g>
</svg>